<svg width="38" height="33" viewBox="0 0 38 33" fill="none" xmlns="http://www.w3.org/2000/svg">
<path d="M30.0216 24.035C29.8209 27.7847 26.2234 30.492 21.4757 30.492H11.5757V22.0729L8.09456 20.7571V33H21.4471C28.3519 33 33.474 28.9273 33.474 23.5387V23.3146C32.4385 23.6377 31.2882 23.8852 30.0216 24.035ZM32.1804 10.9712C29.5325 5.93052 28.1225 1.36005 24.4677 0.293052C22.3393 -0.328445 21.2734 0.167927 20.2665 0.591425C20.1938 0.621244 20.1308 0.666127 20.0831 0.72207C20.0354 0.778014 20.0045 0.843276 19.9932 0.912035C19.9818 0.980794 19.9904 1.05091 20.018 1.11613C20.0457 1.18135 20.0917 1.23964 20.1518 1.2858C20.7269 1.70792 21.4471 2.23042 22.2803 2.90004C19.1736 1.3353 10.5975 -0.998067 9.73554 1.83304C8.95807 4.39053 7.63413 8.14013 7.63413 8.14013C7.63413 8.14013 0.842365 7.54476 0.0664831 10.028C-0.709399 12.5112 5.36065 17.2797 15.4041 19.8372C25.446 22.3961 33.2446 21.7251 36.611 18.5708C39.9774 15.4166 36.7257 11.0455 32.1804 10.9712ZM30.1937 11.0207C29.4178 11.667 26.8846 13.3307 21.3308 12.9829C15.3754 12.6102 10.4827 9.58113 9.21616 8.73688C9.11696 8.67791 9.04337 8.59209 9.00701 8.49298C8.97066 8.39387 8.97362 8.28713 9.01542 8.18963C9.10145 7.94214 9.21616 7.54476 9.4185 7.02227C9.53321 6.70052 9.96496 6.55064 10.282 6.72527C12.7849 7.96688 16.8141 9.77913 21.1013 10.028C24.9282 10.2521 27.2303 9.28275 28.7263 8.56226C28.8031 8.52763 28.8874 8.50725 28.9739 8.5024C29.0603 8.49756 29.1469 8.50837 29.2283 8.53414C29.3096 8.5599 29.3837 8.60006 29.446 8.65202C29.5083 8.70398 29.5573 8.76661 29.5898 8.83588L30.3386 10.4254C30.396 10.6481 30.3673 10.8722 30.1937 11.0207Z" fill="white"/>
</svg>
