<svg width="27" height="679" viewBox="0 0 27 679" fill="none" xmlns="http://www.w3.org/2000/svg">
<path d="M12.5 288.001L12.5 149L12.5 9.99918" stroke="#33B3AE"/>
<path d="M13 368L13 522L13 676" stroke="#33B3AE"/>
<ellipse cx="12.5" cy="10" rx="10.5" ry="10" fill="#36B0E4"/>
<ellipse cx="13.5" cy="669" rx="10.5" ry="10" fill="#36B0E4"/>
<path d="M1 331.8C1 326.992 1 324.587 2.09875 323.094C3.19625 321.6 4.965 321.6 8.5 321.6H18.5C22.035 321.6 23.8038 321.6 24.9013 323.094C26 324.587 26 326.992 26 331.8C26 336.608 26 339.013 24.9013 340.506C23.8038 342 22.035 342 18.5 342H8.5C4.965 342 3.19625 342 2.09875 340.506C1 339.013 1 336.608 1 331.8Z" stroke="white" stroke-width="1.5"/>
<path d="M6 321.6V318.2C6 315.495 6.79018 312.9 8.1967 310.988C9.60322 309.075 11.5109 308 13.5 308C15.4891 308 17.3968 309.075 18.8033 310.988C20.2098 312.9 21 315.495 21 318.2V321.6" stroke="white" stroke-width="1.5" stroke-linecap="round"/>
</svg>
