<svg width="35" height="681" viewBox="0 0 35 681" fill="none" xmlns="http://www.w3.org/2000/svg">
<path d="M18 300.002L18 161.001L18 21.9999" stroke="#40A5A1"/>
<path d="M18 373L18 527L18 681" stroke="#40A5A1"/>
<ellipse cx="17.5" cy="10" rx="10.5" ry="10" fill="#33B3AE"/>
<circle cx="17.5" cy="670.5" r="10.5" fill="#40A5A1"/>
<path d="M9.47917 345.5C7.73176 345.5 6.35315 344.899 5.34333 343.698C4.33352 342.497 3.8487 340.978 3.88889 339.142V338.846L2.71444 337.241C2.05852 336.346 1.44278 335.092 0.867222 333.479C0.289074 331.867 0 330.207 0 328.5C0 326.061 0.645556 324.035 1.93667 322.421C3.22778 320.807 4.85074 320 6.80556 320C8.78759 320 10.4177 320.841 11.6958 322.523C12.9727 324.204 13.6111 326.196 13.6111 328.5C13.6111 329.991 13.3454 331.469 12.8139 332.934C12.2824 334.398 11.773 335.609 11.2856 336.568L12.1606 337.84C12.5443 338.389 12.8819 339.004 13.1736 339.683C13.4653 340.361 13.6111 340.983 13.6111 341.548C13.6111 342.683 13.2229 343.626 12.4464 344.376C11.6699 345.127 10.6808 345.501 9.47917 345.5ZM5.08472 337.301L9.27306 336.4C9.74491 335.493 10.2615 334.29 10.8228 332.789C11.3854 331.29 11.6667 329.86 11.6667 328.5C11.6667 326.669 11.2026 325.077 10.2744 323.726C9.345 322.375 8.1887 321.7 6.80556 321.7C5.42241 321.7 4.26611 322.375 3.33667 323.726C2.40722 325.077 1.94315 326.669 1.94444 328.5C1.94444 330.132 2.24648 331.744 2.85056 333.337C3.45593 334.929 4.2013 336.25 5.08667 337.301M9.47722 343.8C10.1176 343.8 10.6426 343.59 11.0522 343.171C11.4606 342.754 11.6647 342.213 11.6647 341.548C11.6647 341.066 11.5163 340.516 11.2194 339.897C10.9226 339.278 10.5201 338.639 10.0119 337.981L5.83333 338.897C5.83333 340.378 6.14833 341.566 6.77833 342.46C7.40574 343.353 8.30407 343.8 9.47722 343.8ZM25.5208 354C24.3192 354 23.3301 353.625 22.5536 352.875C21.7771 352.124 21.3889 351.183 21.3889 350.049C21.3889 349.485 21.5347 348.863 21.8264 348.184C22.1181 347.504 22.4557 346.89 22.8394 346.342L23.7144 345.07C23.2504 344.133 22.7468 342.926 22.2036 341.451C21.6605 339.975 21.3889 338.491 21.3889 337C21.3889 334.696 22.028 332.704 23.3061 331.023C24.5817 329.341 26.2111 328.5 28.1944 328.5C30.1493 328.5 31.7722 329.307 33.0633 330.921C34.3544 332.535 35 334.561 35 337C35 338.707 34.7174 340.354 34.1522 341.942C33.5883 343.529 32.9661 344.792 32.2856 345.733L31.1111 347.348V347.674C31.1435 349.446 30.6509 350.943 29.6333 352.166C28.6131 353.389 27.2436 354 25.5208 354ZM29.7636 345.996C30.9225 344.423 31.7606 342.968 32.2778 341.629C32.795 340.291 33.0543 338.748 33.0556 337C33.0556 335.169 32.5915 333.577 31.6633 332.226C30.7339 330.875 29.5776 330.2 28.1944 330.2C26.8113 330.2 25.655 330.875 24.7256 332.226C23.7961 333.577 23.332 335.169 23.3333 337C23.3333 338.36 23.6205 339.782 24.1947 341.267C24.7703 342.753 25.281 343.963 25.7269 344.898L29.7636 345.996ZM25.5208 352.3C26.6421 352.3 27.5301 351.864 28.1847 350.991C28.8394 350.118 29.1667 348.996 29.1667 347.625L25.025 346.449C24.6893 346.976 24.3237 347.554 23.9283 348.183C23.533 348.812 23.3346 349.434 23.3333 350.049C23.3333 350.639 23.5485 351.161 23.9789 351.617C24.408 352.073 24.9219 352.3 25.5208 352.3Z" fill="white"/>
</svg>
